STARTFONT 2.1
COMMENT
COMMENT Converted from OpenType font "AachenStd-Medium.otf" by "otf2bdf 3.0".
COMMENT
FONT -FreeType-Aachen Std Medium-Medium-R-Normal--22-160-100-100-P-94-ISO10646-1
SIZE 16 100 100
FONTBOUNDINGBOX 24 25 -1 -5
STARTPROPERTIES 19
FOUNDRY "FreeType"
FAMILY_NAME "Aachen Std Medium"
WEIGHT_NAME "Medium"
SLANT "R"
SETWIDTH_NAME "Normal"
ADD_STYLE_NAME ""
PIXEL_SIZE 22
POINT_SIZE 160
RESOLUTION_X 100
RESOLUTION_Y 100
SPACING "P"
AVERAGE_WIDTH 94
CHARSET_REGISTRY "ISO10646"
CHARSET_ENCODING "1"
FONT_ASCENT 14
FONT_DESCENT 3
COPYRIGHT "Copyright 1997 International Typeface Corporation. All rights reserved."
_OTF_FONTFILE "AachenStd-Medium.otf"
_OTF_PSNAME "AachenStd-Medium"
ENDPROPERTIES
CHARS 210
STARTCHAR 0020
ENCODING 32
SWIDTH 225 0
DWIDTH 5 0
BBX 0 0 0 0
BITMAP
ENDCHAR
STARTCHAR 0021
ENCODING 33
SWIDTH 315 0
DWIDTH 7 0
BBX 3 15 2 0
BITMAP
E0
E0
E0
E0
E0
E0
E0
E0
C0
C0
00
00
E0
E0
E0
ENDCHAR
STARTCHAR 0022
ENCODING 34
SWIDTH 405 0
DWIDTH 9 0
BBX 7 4 1 11
BITMAP
6C
EE
EC
4C
ENDCHAR
STARTCHAR 0024
ENCODING 36
SWIDTH 540 0
DWIDTH 12 0
BBX 10 17 1 -1
BITMAP
0E00
3F00
7FC0
FFC0
F3C0
F1C0
F800
7E00
3F80
0FC0
03C0
E1C0
F3C0
FFC0
FF80
3F00
0E00
ENDCHAR
STARTCHAR 0025
ENCODING 37
SWIDTH 720 0
DWIDTH 16 0
BBX 14 15 1 0
BITMAP
7830
DC60
CC60
CCC0
CDC0
CD80
FF80
0300
06FC
06CC
0CCC
1CCC
18CC
38DC
3078
ENDCHAR
STARTCHAR 0026
ENCODING 38
SWIDTH 585 0
DWIDTH 13 0
BBX 11 15 1 0
BITMAP
3F00
7FC0
FFC0
F3C0
F000
F000
7FE0
7FE0
F9C0
E1C0
E1C0
F1C0
FFC0
7FC0
3FC0
ENDCHAR
STARTCHAR 0027
ENCODING 39
SWIDTH 225 0
DWIDTH 5 0
BBX 3 4 1 11
BITMAP
60
E0
E0
40
ENDCHAR
STARTCHAR 0028
ENCODING 40
SWIDTH 360 0
DWIDTH 8 0
BBX 5 19 2 -2
BITMAP
18
18
38
70
70
F0
E0
E0
E0
E0
E0
E0
E0
F0
70
70
38
18
08
ENDCHAR
STARTCHAR 0029
ENCODING 41
SWIDTH 360 0
DWIDTH 8 0
BBX 6 19 0 -2
BITMAP
60
60
70
38
38
38
3C
1C
1C
1C
1C
1C
3C
38
38
70
70
E0
40
ENDCHAR
STARTCHAR 002A
ENCODING 42
SWIDTH 270 0
DWIDTH 6 0
BBX 4 4 1 11
BITMAP
70
60
F0
60
ENDCHAR
STARTCHAR 002B
ENCODING 43
SWIDTH 540 0
DWIDTH 12 0
BBX 10 11 1 1
BITMAP
0C00
0C00
0C00
0C00
FFC0
FFC0
0C00
0C00
0C00
0C00
0C00
ENDCHAR
STARTCHAR 002C
ENCODING 44
SWIDTH 225 0
DWIDTH 5 0
BBX 3 5 1 -2
BITMAP
60
E0
E0
60
40
ENDCHAR
STARTCHAR 002D
ENCODING 45
SWIDTH 315 0
DWIDTH 7 0
BBX 5 2 1 5
BITMAP
F8
F8
ENDCHAR
STARTCHAR 002E
ENCODING 46
SWIDTH 225 0
DWIDTH 5 0
BBX 3 3 1 0
BITMAP
E0
E0
E0
ENDCHAR
STARTCHAR 002F
ENCODING 47
SWIDTH 495 0
DWIDTH 11 0
BBX 11 17 0 -1
BITMAP
00E0
00C0
01C0
01C0
0380
0380
0700
0700
0E00
0E00
1C00
1C00
3800
3800
7000
7000
E000
ENDCHAR
STARTCHAR 0030
ENCODING 48
SWIDTH 540 0
DWIDTH 12 0
BBX 10 15 1 0
BITMAP
3F00
7F80
FFC0
F3C0
E1C0
E1C0
E1C0
E1C0
E1C0
E1C0
E1C0
F3C0
FFC0
7F80
3F00
ENDCHAR
STARTCHAR 0031
ENCODING 49
SWIDTH 315 0
DWIDTH 7 0
BBX 5 15 1 0
BITMAP
F0
F0
F0
70
70
70
70
70
70
70
70
70
F8
F8
F8
ENDCHAR
STARTCHAR 0032
ENCODING 50
SWIDTH 540 0
DWIDTH 12 0
BBX 10 15 1 0
BITMAP
3F00
FF80
FF80
E3C0
E3C0
07C0
0F80
1F00
7E00
F800
F3C0
E3C0
FFC0
FFC0
FFC0
ENDCHAR
STARTCHAR 0033
ENCODING 51
SWIDTH 495 0
DWIDTH 11 0
BBX 10 15 1 0
BITMAP
3E00
FF80
FF80
E3C0
E3C0
0380
3F00
3F00
3F80
03C0
E3C0
E3C0
FF80
FF80
7E00
ENDCHAR
STARTCHAR 0034
ENCODING 52
SWIDTH 540 0
DWIDTH 12 0
BBX 11 15 0 0
BITMAP
07C0
07C0
0FC0
1FC0
1FC0
3BC0
7BC0
73C0
FFE0
FFE0
FFE0
03C0
03C0
03E0
03E0
ENDCHAR
STARTCHAR 0035
ENCODING 53
SWIDTH 540 0
DWIDTH 12 0
BBX 10 15 1 0
BITMAP
FFC0
FFC0
FFC0
E3C0
E000
FF00
FF80
FFC0
01C0
01C0
E1C0
F3C0
FFC0
FF80
3F00
ENDCHAR
STARTCHAR 0036
ENCODING 54
SWIDTH 540 0
DWIDTH 12 0
BBX 10 15 1 0
BITMAP
3F00
7FC0
FFC0
F3C0
E000
E700
FF80
FFC0
F3C0
E1C0
E1C0
F3C0
FFC0
7F80
3F00
ENDCHAR
STARTCHAR 0037
ENCODING 55
SWIDTH 495 0
DWIDTH 11 0
BBX 11 15 0 0
BITMAP
FFE0
FFE0
FFE0
F3C0
F3C0
0380
0780
0700
0F00
0F00
0E00
1E00
1C00
3C00
3C00
ENDCHAR
STARTCHAR 0038
ENCODING 56
SWIDTH 540 0
DWIDTH 12 0
BBX 10 15 1 0
BITMAP
3F00
7F80
FFC0
F3C0
E1C0
F3C0
7F80
7F80
F3C0
E1C0
E1C0
F3C0
FFC0
7F80
3F00
ENDCHAR
STARTCHAR 0039
ENCODING 57
SWIDTH 540 0
DWIDTH 12 0
BBX 10 15 1 0
BITMAP
3F00
7F80
FFC0
F3C0
F1C0
F1C0
F3C0
FFC0
7FC0
3DC0
01C0
F3C0
FFC0
FF80
3F00
ENDCHAR
STARTCHAR 003A
ENCODING 58
SWIDTH 225 0
DWIDTH 5 0
BBX 3 11 1 0
BITMAP
E0
E0
E0
00
00
00
00
00
E0
E0
E0
ENDCHAR
STARTCHAR 003B
ENCODING 59
SWIDTH 225 0
DWIDTH 5 0
BBX 3 13 1 -2
BITMAP
E0
E0
E0
00
00
00
00
00
E0
E0
E0
60
40
ENDCHAR
STARTCHAR 003C
ENCODING 60
SWIDTH 540 0
DWIDTH 12 0
BBX 10 11 1 1
BITMAP
0040
03C0
0FC0
3F00
F800
E000
F800
3F00
0FC0
03C0
0040
ENDCHAR
STARTCHAR 003D
ENCODING 61
SWIDTH 540 0
DWIDTH 12 0
BBX 10 7 1 3
BITMAP
FFC0
FFC0
0000
0000
0000
FFC0
FFC0
ENDCHAR
STARTCHAR 003E
ENCODING 62
SWIDTH 540 0
DWIDTH 12 0
BBX 10 11 1 1
BITMAP
8000
F000
FC00
3F00
07C0
01C0
07C0
3F00
FC00
F000
8000
ENDCHAR
STARTCHAR 003F
ENCODING 63
SWIDTH 540 0
DWIDTH 12 0
BBX 10 15 1 0
BITMAP
3F00
FF80
FFC0
F3C0
E3C0
07C0
0F80
1F00
3E00
3800
0000
0000
3800
3800
1800
ENDCHAR
STARTCHAR 0041
ENCODING 65
SWIDTH 540 0
DWIDTH 12 0
BBX 12 15 0 0
BITMAP
1F00
1F80
1F80
1F80
3B80
3B80
3BC0
3BC0
39C0
7FC0
7FC0
71E0
71E0
FBF0
FBF0
ENDCHAR
STARTCHAR 0042
ENCODING 66
SWIDTH 585 0
DWIDTH 13 0
BBX 11 15 1 0
BITMAP
FF80
FFC0
FFC0
F1C0
F1C0
F1C0
FFC0
FF80
FFC0
F1E0
F1E0
F1E0
FFE0
FFC0
FF80
ENDCHAR
STARTCHAR 0043
ENCODING 67
SWIDTH 540 0
DWIDTH 12 0
BBX 10 15 1 0
BITMAP
3F00
7FC0
FFC0
F3C0
E1C0
E000
E000
E000
E000
E1C0
E1C0
F3C0
FFC0
7FC0
3F00
ENDCHAR
STARTCHAR 0044
ENCODING 68
SWIDTH 540 0
DWIDTH 12 0
BBX 10 15 1 0
BITMAP
FF00
FF80
FFC0
F1C0
F1C0
F1C0
F1C0
F1C0
F1C0
F1C0
F1C0
F1C0
FFC0
FFC0
FF00
ENDCHAR
STARTCHAR 0045
ENCODING 69
SWIDTH 540 0
DWIDTH 12 0
BBX 10 15 1 0
BITMAP
FFC0
FFC0
FFC0
F1C0
F1C0
F000
FF00
FF00
FF00
F000
F1C0
F1C0
FFC0
FFC0
FFC0
ENDCHAR
STARTCHAR 0046
ENCODING 70
SWIDTH 540 0
DWIDTH 12 0
BBX 10 15 1 0
BITMAP
FFC0
FFC0
FFC0
F1C0
F1C0
F000
FF00
FF00
FF00
F000
F000
F000
F000
F800
F800
ENDCHAR
STARTCHAR 0047
ENCODING 71
SWIDTH 540 0
DWIDTH 12 0
BBX 10 15 1 0
BITMAP
3F00
7FC0
FFC0
F3C0
E1C0
E000
E000
E7C0
E7C0
E1C0
E1C0
F3C0
FFC0
7FC0
3F00
ENDCHAR
STARTCHAR 0048
ENCODING 72
SWIDTH 585 0
DWIDTH 13 0
BBX 11 15 1 0
BITMAP
FBE0
FBE0
F1E0
F1E0
F1E0
F1E0
FFE0
FFE0
FFE0
F1E0
F1E0
F1E0
F1E0
FBE0
FBE0
ENDCHAR
STARTCHAR 0049
ENCODING 73
SWIDTH 270 0
DWIDTH 6 0
BBX 5 15 1 0
BITMAP
F8
F8
F8
F0
F0
F0
F0
F0
F0
F0
F0
F0
F0
F8
F8
ENDCHAR
STARTCHAR 004A
ENCODING 74
SWIDTH 315 0
DWIDTH 7 0
BBX 6 15 0 0
BITMAP
7C
7C
7C
38
38
38
38
38
38
38
38
38
F8
F8
F0
ENDCHAR
STARTCHAR 004B
ENCODING 75
SWIDTH 540 0
DWIDTH 12 0
BBX 11 15 1 0
BITMAP
FBC0
FBC0
F3C0
F380
F780
F700
FE00
FF00
FF00
F780
F780
F3C0
F3E0
FBE0
FBE0
ENDCHAR
STARTCHAR 004C
ENCODING 76
SWIDTH 495 0
DWIDTH 11 0
BBX 10 15 1 0
BITMAP
F800
F800
F800
F000
F000
F000
F000
F000
F1C0
F1C0
F1C0
F1C0
FFC0
FFC0
FFC0
ENDCHAR
STARTCHAR 004D
ENCODING 77
SWIDTH 720 0
DWIDTH 16 0
BBX 14 15 1 0
BITMAP
F87C
FCFC
FCFC
FCF8
FCF8
FFF8
EFF8
EFB8
EFB8
EFB8
E7B8
E738
F77C
F77C
F37C
ENDCHAR
STARTCHAR 004E
ENCODING 78
SWIDTH 585 0
DWIDTH 13 0
BBX 11 15 1 0
BITMAP
F1E0
F1E0
F9E0
F9E0
FDE0
FDE0
FFE0
FFE0
FFE0
F7E0
F7E0
F3E0
F3E0
F1E0
F1E0
ENDCHAR
STARTCHAR 004F
ENCODING 79
SWIDTH 540 0
DWIDTH 12 0
BBX 10 15 1 0
BITMAP
3F00
7F80
FFC0
F3C0
E1C0
E1C0
E1C0
E1C0
E1C0
E1C0
E1C0
F3C0
FFC0
7F80
3F00
ENDCHAR
STARTCHAR 0050
ENCODING 80
SWIDTH 540 0
DWIDTH 12 0
BBX 10 15 1 0
BITMAP
FF80
FFC0
FFC0
F1C0
F1C0
F1C0
F1C0
FFC0
FFC0
FF80
F000
F000
F000
F800
F800
ENDCHAR
STARTCHAR 0051
ENCODING 81
SWIDTH 540 0
DWIDTH 12 0
BBX 10 16 1 -1
BITMAP
3F00
7F80
FFC0
F3C0
E1C0
E1C0
E1C0
E1C0
E1C0
E1C0
E1C0
F3C0
FFC0
7F80
3FC0
01C0
ENDCHAR
STARTCHAR 0052
ENCODING 82
SWIDTH 585 0
DWIDTH 13 0
BBX 11 15 1 0
BITMAP
FF80
FFC0
FFC0
F1C0
F1C0
F1C0
FFC0
FF80
FFC0
F1C0
F1C0
F1C0
F1E0
F9E0
F9E0
ENDCHAR
STARTCHAR 0053
ENCODING 83
SWIDTH 540 0
DWIDTH 12 0
BBX 10 15 1 0
BITMAP
3F00
7FC0
FFC0
F3C0
E3C0
F000
7E00
3F80
0FC0
03C0
E1C0
F3C0
FFC0
FF80
3F00
ENDCHAR
STARTCHAR 0054
ENCODING 84
SWIDTH 540 0
DWIDTH 12 0
BBX 12 15 0 0
BITMAP
FFF0
FFF0
FFF0
E770
E770
E770
0700
0700
0700
0700
0700
0700
0F00
0F80
0F80
ENDCHAR
STARTCHAR 0055
ENCODING 85
SWIDTH 540 0
DWIDTH 12 0
BBX 11 15 1 0
BITMAP
FBE0
FBE0
F3C0
F1C0
F1C0
F1C0
F1C0
F1C0
F1C0
F1C0
F1C0
F1C0
7FC0
7F80
1F00
ENDCHAR
STARTCHAR 0056
ENCODING 86
SWIDTH 540 0
DWIDTH 12 0
BBX 12 15 0 0
BITMAP
F9F0
F9F0
79E0
78E0
78E0
79C0
39C0
39C0
3DC0
3DC0
1F80
1F80
1F80
1F80
1F80
ENDCHAR
STARTCHAR 0057
ENCODING 87
SWIDTH 765 0
DWIDTH 17 0
BBX 17 15 0 0
BITMAP
F9CF80
F9EF80
79E700
79E700
79E700
7BE700
3BE600
3BFE00
3B7E00
3F7E00
3F7E00
1F7E00
1F3C00
1F3C00
1E3C00
ENDCHAR
STARTCHAR 0058
ENCODING 88
SWIDTH 495 0
DWIDTH 11 0
BBX 11 15 0 0
BITMAP
79E0
79E0
79E0
3BC0
3F80
1F80
1F00
1F00
1F00
3F80
3F80
73C0
F3E0
F3E0
F3E0
ENDCHAR
STARTCHAR 0059
ENCODING 89
SWIDTH 495 0
DWIDTH 11 0
BBX 11 15 0 0
BITMAP
F9E0
F9E0
79E0
79C0
3BC0
3F80
1F80
1F00
0F00
0E00
0E00
0E00
1F00
1F00
1F00
ENDCHAR
STARTCHAR 005A
ENCODING 90
SWIDTH 495 0
DWIDTH 11 0
BBX 10 15 1 0
BITMAP
FFC0
FFC0
FF80
E780
CF00
0F00
1E00
1E00
3C00
7800
79C0
F1C0
FFC0
FFC0
FFC0
ENDCHAR
STARTCHAR 005B
ENCODING 91
SWIDTH 360 0
DWIDTH 8 0
BBX 5 19 2 -2
BITMAP
F8
F8
E0
E0
E0
E0
E0
E0
E0
E0
E0
E0
E0
E0
E0
E0
E0
F8
F8
ENDCHAR
STARTCHAR 005C
ENCODING 92
SWIDTH 495 0
DWIDTH 11 0
BBX 11 17 0 -1
BITMAP
E000
7000
7000
3800
3800
1C00
1C00
0C00
0E00
0600
0700
0700
0380
0380
01C0
01C0
00E0
ENDCHAR
STARTCHAR 005D
ENCODING 93
SWIDTH 360 0
DWIDTH 8 0
BBX 5 19 1 -2
BITMAP
F8
F8
38
38
38
38
38
38
38
38
38
38
38
38
38
38
38
F8
F8
ENDCHAR
STARTCHAR 005E
ENCODING 94
SWIDTH 540 0
DWIDTH 12 0
BBX 10 9 1 7
BITMAP
0C00
1E00
1E00
3F00
3300
7380
6180
E1C0
C0C0
ENDCHAR
STARTCHAR 005F
ENCODING 95
SWIDTH 495 0
DWIDTH 11 0
BBX 11 2 0 -5
BITMAP
FFE0
FFE0
ENDCHAR
STARTCHAR 0060
ENCODING 96
SWIDTH 270 0
DWIDTH 6 0
BBX 3 3 2 12
BITMAP
C0
C0
60
ENDCHAR
STARTCHAR 0061
ENCODING 97
SWIDTH 495 0
DWIDTH 11 0
BBX 9 11 1 0
BITMAP
3E00
FF00
F780
E780
0F80
7F80
FF80
E780
E780
FF80
FB80
ENDCHAR
STARTCHAR 0062
ENCODING 98
SWIDTH 495 0
DWIDTH 11 0
BBX 10 15 0 0
BITMAP
F000
F000
7000
7000
7780
7FC0
7BC0
71C0
71C0
71C0
71C0
71C0
79C0
7FC0
1F00
ENDCHAR
STARTCHAR 0063
ENCODING 99
SWIDTH 450 0
DWIDTH 10 0
BBX 8 11 1 0
BITMAP
3E
FF
E7
E7
E0
E0
E7
E7
E7
FF
7E
ENDCHAR
STARTCHAR 0064
ENCODING 100
SWIDTH 495 0
DWIDTH 11 0
BBX 10 15 1 0
BITMAP
0780
0780
0780
0380
7B80
FF80
F780
E380
E380
E380
E380
E380
E780
FFC0
7BC0
ENDCHAR
STARTCHAR 0065
ENCODING 101
SWIDTH 450 0
DWIDTH 10 0
BBX 9 11 1 0
BITMAP
3E00
FF00
E700
E780
FF80
FF80
E000
E780
E780
FF80
3E00
ENDCHAR
STARTCHAR 0066
ENCODING 102
SWIDTH 270 0
DWIDTH 6 0
BBX 5 15 1 0
BITMAP
78
78
F0
E0
F8
F8
E0
E0
E0
E0
E0
E0
F0
F0
F0
ENDCHAR
STARTCHAR 0067
ENCODING 103
SWIDTH 495 0
DWIDTH 11 0
BBX 10 15 1 -4
BITMAP
7BC0
FFC0
F780
E380
E380
E380
E380
E380
F780
FF80
7B80
E380
F780
FF00
3E00
ENDCHAR
STARTCHAR 0068
ENCODING 104
SWIDTH 495 0
DWIDTH 11 0
BBX 10 15 1 0
BITMAP
E000
E000
E000
E000
EF00
FF80
F780
E380
E380
E380
E380
E380
E380
F3C0
F3C0
ENDCHAR
STARTCHAR 0069
ENCODING 105
SWIDTH 270 0
DWIDTH 6 0
BBX 4 15 1 0
BITMAP
60
E0
E0
00
E0
E0
E0
E0
E0
E0
E0
E0
F0
F0
F0
ENDCHAR
STARTCHAR 006A
ENCODING 106
SWIDTH 270 0
DWIDTH 6 0
BBX 4 19 0 -4
BITMAP
30
70
70
00
70
70
70
70
70
70
70
70
70
70
70
70
70
F0
E0
ENDCHAR
STARTCHAR 006B
ENCODING 107
SWIDTH 495 0
DWIDTH 11 0
BBX 9 15 1 0
BITMAP
E000
E000
E000
E000
E780
E780
EF00
FE00
FC00
FE00
EE00
EF00
F780
F780
F380
ENDCHAR
STARTCHAR 006C
ENCODING 108
SWIDTH 270 0
DWIDTH 6 0
BBX 4 15 1 0
BITMAP
E0
E0
E0
E0
E0
E0
E0
E0
E0
E0
E0
E0
F0
F0
F0
ENDCHAR
STARTCHAR 006D
ENCODING 109
SWIDTH 765 0
DWIDTH 17 0
BBX 15 11 1 0
BITMAP
EF7C
FFFC
F79E
E38E
E38E
E38E
E38E
E38E
F38E
F3CE
F3CE
ENDCHAR
STARTCHAR 006E
ENCODING 110
SWIDTH 540 0
DWIDTH 12 0
BBX 10 11 1 0
BITMAP
EF00
FF80
F380
E380
E380
E380
E380
E380
F3C0
F3C0
F3C0
ENDCHAR
STARTCHAR 006F
ENCODING 111
SWIDTH 450 0
DWIDTH 10 0
BBX 9 11 1 0
BITMAP
3E00
FF00
E700
E780
E780
E780
E780
E780
E700
FF00
3E00
ENDCHAR
STARTCHAR 0070
ENCODING 112
SWIDTH 495 0
DWIDTH 11 0
BBX 9 15 1 -4
BITMAP
EF00
FF80
F380
E380
E380
E380
E380
E380
F780
FF80
EF00
E000
F000
F000
F000
ENDCHAR
STARTCHAR 0071
ENCODING 113
SWIDTH 495 0
DWIDTH 11 0
BBX 10 15 1 -4
BITMAP
7B80
FF80
F780
E380
E380
E380
E380
E380
E380
FF80
7F80
0380
0380
07C0
07C0
ENDCHAR
STARTCHAR 0072
ENCODING 114
SWIDTH 315 0
DWIDTH 7 0
BBX 6 11 1 0
BITMAP
EC
FC
FC
F0
E0
E0
E0
E0
F0
F0
F0
ENDCHAR
STARTCHAR 0073
ENCODING 115
SWIDTH 450 0
DWIDTH 10 0
BBX 8 11 1 0
BITMAP
7E
FF
E7
E7
F0
7E
1F
E7
EF
FF
7E
ENDCHAR
STARTCHAR 0074
ENCODING 116
SWIDTH 270 0
DWIDTH 6 0
BBX 5 14 0 0
BITMAP
10
70
70
F8
F8
70
70
70
70
70
70
78
78
38
ENDCHAR
STARTCHAR 0075
ENCODING 117
SWIDTH 540 0
DWIDTH 12 0
BBX 11 11 0 0
BITMAP
F3C0
F3C0
71C0
71C0
71C0
71C0
71C0
71C0
79C0
7FE0
3FE0
ENDCHAR
STARTCHAR 0076
ENCODING 118
SWIDTH 450 0
DWIDTH 10 0
BBX 10 11 0 0
BITMAP
FBC0
FBC0
73C0
7380
7380
3B80
3F00
3F00
3F00
1E00
1E00
ENDCHAR
STARTCHAR 0077
ENCODING 119
SWIDTH 675 0
DWIDTH 15 0
BBX 15 11 0 0
BITMAP
FB9E
FB9E
739C
739C
77D8
3FF8
3EF8
3EF8
3EF0
1CF0
1C70
ENDCHAR
STARTCHAR 0078
ENCODING 120
SWIDTH 450 0
DWIDTH 10 0
BBX 10 11 0 0
BITMAP
F380
F380
7B80
3F00
3E00
1E00
3F00
3F00
7780
F3C0
F3C0
ENDCHAR
STARTCHAR 0079
ENCODING 121
SWIDTH 450 0
DWIDTH 10 0
BBX 10 15 0 -4
BITMAP
F3C0
F3C0
F3C0
7380
7380
3B80
3F00
3F00
1F00
1F00
1E00
0E00
1E00
3C00
3800
ENDCHAR
STARTCHAR 007A
ENCODING 122
SWIDTH 450 0
DWIDTH 10 0
BBX 9 11 1 0
BITMAP
FF80
FF80
CF00
CE00
1E00
3C00
7800
7380
F380
FF80
FF80
ENDCHAR
STARTCHAR 007C
ENCODING 124
SWIDTH 180 0
DWIDTH 4 0
BBX 2 22 1 -5
BITMAP
C0
C0
C0
C0
C0
C0
C0
C0
C0
C0
C0
C0
C0
C0
C0
C0
C0
C0
C0
C0
C0
C0
ENDCHAR
STARTCHAR 007E
ENCODING 126
SWIDTH 540 0
DWIDTH 12 0
BBX 10 3 1 5
BITMAP
7CC0
FFC0
CFC0
ENDCHAR
STARTCHAR 00A0
ENCODING 160
SWIDTH 225 0
DWIDTH 5 0
BBX 0 0 0 0
BITMAP
ENDCHAR
STARTCHAR 00A1
ENCODING 161
SWIDTH 315 0
DWIDTH 7 0
BBX 4 15 1 0
BITMAP
70
70
70
00
00
60
60
70
70
70
70
70
70
F0
70
ENDCHAR
STARTCHAR 00A2
ENCODING 162
SWIDTH 495 0
DWIDTH 11 0
BBX 9 13 1 1
BITMAP
1C00
7F00
FF80
E780
E380
E000
E000
E380
E380
E780
FF80
7F00
1C00
ENDCHAR
STARTCHAR 00A3
ENCODING 163
SWIDTH 540 0
DWIDTH 12 0
BBX 10 15 1 0
BITMAP
1F80
3FC0
7FC0
71C0
71C0
7000
FF00
FF00
FF00
7000
7000
71C0
FFC0
FFC0
FFC0
ENDCHAR
STARTCHAR 00A5
ENCODING 165
SWIDTH 585 0
DWIDTH 13 0
BBX 11 15 1 0
BITMAP
F1E0
F1E0
F1E0
79C0
7B80
3F80
FFE0
1F00
FFE0
0FE0
0E00
0E00
1F00
1F00
1F00
ENDCHAR
STARTCHAR 00A6
ENCODING 166
SWIDTH 180 0
DWIDTH 4 0
BBX 2 22 1 -5
BITMAP
C0
C0
C0
C0
C0
C0
C0
C0
C0
C0
00
00
C0
C0
C0
C0
C0
C0
C0
C0
C0
C0
ENDCHAR
STARTCHAR 00A8
ENCODING 168
SWIDTH 405 0
DWIDTH 9 0
BBX 6 3 2 12
BITMAP
CC
DC
88
ENDCHAR
STARTCHAR 00AB
ENCODING 171
SWIDTH 315 0
DWIDTH 7 0
BBX 5 6 1 3
BITMAP
78
78
D0
F0
58
78
ENDCHAR
STARTCHAR 00AC
ENCODING 172
SWIDTH 540 0
DWIDTH 12 0
BBX 10 6 1 3
BITMAP
FFC0
FFC0
01C0
01C0
01C0
01C0
ENDCHAR
STARTCHAR 00AD
ENCODING 173
SWIDTH 315 0
DWIDTH 7 0
BBX 5 2 1 5
BITMAP
F8
F8
ENDCHAR
STARTCHAR 00B1
ENCODING 177
SWIDTH 540 0
DWIDTH 12 0
BBX 10 14 1 0
BITMAP
0C00
0C00
0C00
0C00
FFC0
FFC0
0C00
0C00
0C00
0C00
0000
0000
FFC0
FFC0
ENDCHAR
STARTCHAR 00B4
ENCODING 180
SWIDTH 270 0
DWIDTH 6 0
BBX 2 3 2 12
BITMAP
C0
C0
80
ENDCHAR
STARTCHAR 00B5
ENCODING 181
SWIDTH 540 0
DWIDTH 12 0
BBX 10 15 1 -4
BITMAP
C380
C380
C380
C380
C380
C380
C380
C380
E780
EF80
DBC0
C000
C000
C000
C000
ENDCHAR
STARTCHAR 00B7
ENCODING 183
SWIDTH 225 0
DWIDTH 5 0
BBX 3 3 1 6
BITMAP
E0
E0
E0
ENDCHAR
STARTCHAR 00BB
ENCODING 187
SWIDTH 315 0
DWIDTH 7 0
BBX 5 6 1 3
BITMAP
F0
D8
78
78
58
D0
ENDCHAR
STARTCHAR 00BF
ENCODING 191
SWIDTH 540 0
DWIDTH 12 0
BBX 10 15 1 0
BITMAP
0600
0F00
0700
0000
0000
0F00
1F00
3E00
FC00
F000
E3C0
E3C0
FFC0
7FC0
3F00
ENDCHAR
STARTCHAR 00C0
ENCODING 192
SWIDTH 540 0
DWIDTH 12 0
BBX 12 19 0 0
BITMAP
0C00
0C00
0600
0000
1F00
1F80
1F80
1F80
3B80
3B80
3BC0
3BC0
39C0
7FC0
7FC0
71E0
71E0
FBF0
FBF0
ENDCHAR
STARTCHAR 00C1
ENCODING 193
SWIDTH 540 0
DWIDTH 12 0
BBX 12 19 0 0
BITMAP
0300
0600
0400
0000
1F00
1F80
1F80
1F80
3B80
3B80
3BC0
3BC0
39C0
7FC0
7FC0
71E0
71E0
FBF0
FBF0
ENDCHAR
STARTCHAR 00C2
ENCODING 194
SWIDTH 540 0
DWIDTH 12 0
BBX 12 19 0 0
BITMAP
0E00
0B00
1980
0000
1F00
1F80
1F80
1F80
3B80
3B80
3BC0
3BC0
39C0
7FC0
7FC0
71E0
71E0
FBF0
FBF0
ENDCHAR
STARTCHAR 00C3
ENCODING 195
SWIDTH 540 0
DWIDTH 12 0
BBX 12 19 0 0
BITMAP
1F80
1F00
0000
0000
1F00
1F80
1F80
1F80
3B80
3B80
3BC0
3BC0
39C0
7FC0
7FC0
71E0
71E0
FBF0
FBF0
ENDCHAR
STARTCHAR 00C4
ENCODING 196
SWIDTH 540 0
DWIDTH 12 0
BBX 12 19 0 0
BITMAP
1980
1B80
0100
0000
1F00
1F80
1F80
1F80
3B80
3B80
3BC0
3BC0
39C0
7FC0
7FC0
71E0
71E0
FBF0
FBF0
ENDCHAR
STARTCHAR 00C5
ENCODING 197
SWIDTH 540 0
DWIDTH 12 0
BBX 12 20 0 0
BITMAP
0600
0B00
0B00
0600
0000
1F00
1F80
1F80
1F80
3B80
3B80
3BC0
3BC0
39C0
7FC0
7FC0
71E0
71E0
FBF0
FBF0
ENDCHAR
STARTCHAR 00C6
ENCODING 198
SWIDTH 810 0
DWIDTH 18 0
BBX 17 15 0 0
BITMAP
03FF80
07FF80
07FF80
0FE380
0EE380
0EE000
1CFE00
1CFE00
3CFE00
3FE000
3FE380
70E380
F9FF80
F9FF80
F9FF80
ENDCHAR
STARTCHAR 00C7
ENCODING 199
SWIDTH 540 0
DWIDTH 12 0
BBX 10 19 1 -4
BITMAP
3F00
7FC0
FFC0
F3C0
E1C0
E000
E000
E000
E000
E1C0
E1C0
F3C0
FFC0
7FC0
3F00
0C00
0E00
0A00
0E00
ENDCHAR
STARTCHAR 00C8
ENCODING 200
SWIDTH 540 0
DWIDTH 12 0
BBX 10 19 1 0
BITMAP
1800
0800
0C00
0000
FFC0
FFC0
FFC0
F1C0
F1C0
F000
FF00
FF00
FF00
F000
F1C0
F1C0
FFC0
FFC0
FFC0
ENDCHAR
STARTCHAR 00C9
ENCODING 201
SWIDTH 540 0
DWIDTH 12 0
BBX 10 19 1 0
BITMAP
0600
0C00
0C00
0000
FFC0
FFC0
FFC0
F1C0
F1C0
F000
FF00
FF00
FF00
F000
F1C0
F1C0
FFC0
FFC0
FFC0
ENDCHAR
STARTCHAR 00CA
ENCODING 202
SWIDTH 540 0
DWIDTH 12 0
BBX 10 19 1 0
BITMAP
1C00
1600
3300
0000
FFC0
FFC0
FFC0
F1C0
F1C0
F000
FF00
FF00
FF00
F000
F1C0
F1C0
FFC0
FFC0
FFC0
ENDCHAR
STARTCHAR 00CB
ENCODING 203
SWIDTH 540 0
DWIDTH 12 0
BBX 10 19 1 0
BITMAP
3300
3300
0200
0000
FFC0
FFC0
FFC0
F1C0
F1C0
F000
FF00
FF00
FF00
F000
F1C0
F1C0
FFC0
FFC0
FFC0
ENDCHAR
STARTCHAR 00CC
ENCODING 204
SWIDTH 270 0
DWIDTH 6 0
BBX 5 19 1 0
BITMAP
C0
60
60
00
F8
F8
F8
F0
F0
F0
F0
F0
F0
F0
F0
F0
F0
F8
F8
ENDCHAR
STARTCHAR 00CD
ENCODING 205
SWIDTH 270 0
DWIDTH 6 0
BBX 5 19 1 0
BITMAP
30
30
20
00
F8
F8
F8
F0
F0
F0
F0
F0
F0
F0
F0
F0
F0
F8
F8
ENDCHAR
STARTCHAR 00CE
ENCODING 206
SWIDTH 270 0
DWIDTH 6 0
BBX 6 19 0 0
BITMAP
38
68
CC
00
7C
7C
7C
78
78
78
78
78
78
78
78
78
78
7C
7C
ENDCHAR
STARTCHAR 00CF
ENCODING 207
SWIDTH 270 0
DWIDTH 6 0
BBX 6 19 0 0
BITMAP
CC
EC
44
00
7C
7C
78
78
78
78
78
78
78
78
78
78
78
7C
7C
ENDCHAR
STARTCHAR 00D1
ENCODING 209
SWIDTH 585 0
DWIDTH 13 0
BBX 11 19 1 0
BITMAP
1D00
1F00
0000
0000
F1E0
F1E0
F9E0
F9E0
FDE0
FDE0
FFE0
FFE0
FFE0
F7E0
F7E0
F3E0
F3E0
F1E0
F1E0
ENDCHAR
STARTCHAR 00D2
ENCODING 210
SWIDTH 540 0
DWIDTH 12 0
BBX 10 19 1 0
BITMAP
1800
1800
0C00
0000
3F00
7F80
FFC0
F3C0
E1C0
E1C0
E1C0
E1C0
E1C0
E1C0
E1C0
F3C0
FFC0
7F80
3F00
ENDCHAR
STARTCHAR 00D3
ENCODING 211
SWIDTH 540 0
DWIDTH 12 0
BBX 10 19 1 0
BITMAP
0600
0400
0C00
0000
3F00
7F80
FFC0
F3C0
E1C0
E1C0
E1C0
E1C0
E1C0
E1C0
E1C0
F3C0
FFC0
7F80
3F00
ENDCHAR
STARTCHAR 00D4
ENCODING 212
SWIDTH 540 0
DWIDTH 12 0
BBX 10 19 1 0
BITMAP
0E00
1E00
3300
0000
3F00
7F80
FFC0
F3C0
E1C0
E1C0
E1C0
E1C0
E1C0
E1C0
E1C0
F3C0
FFC0
7F80
3F00
ENDCHAR
STARTCHAR 00D5
ENCODING 213
SWIDTH 540 0
DWIDTH 12 0
BBX 10 18 1 0
BITMAP
3F00
3F00
0000
3F00
7F80
FFC0
F3C0
E1C0
E1C0
E1C0
E1C0
E1C0
E1C0
E1C0
F3C0
FFC0
7F80
3F00
ENDCHAR
STARTCHAR 00D6
ENCODING 214
SWIDTH 540 0
DWIDTH 12 0
BBX 10 18 1 1
BITMAP
3300
3300
0000
3F00
7F80
FFC0
F3C0
E1C0
E1C0
E1C0
E1C0
E1C0
E1C0
E1C0
F3C0
FFC0
7F80
3F00
ENDCHAR
STARTCHAR 00D7
ENCODING 215
SWIDTH 540 0
DWIDTH 12 0
BBX 10 11 1 1
BITMAP
4080
E1C0
7380
3F80
3F00
1E00
3F00
7F80
73C0
E1C0
4080
ENDCHAR
STARTCHAR 00D8
ENCODING 216
SWIDTH 540 0
DWIDTH 12 0
BBX 10 17 1 -1
BITMAP
0180
3FC0
7FC0
FFC0
F3C0
E1C0
E1C0
E1C0
E1C0
E1C0
E1C0
E1C0
F3C0
FFC0
7F80
FF00
6000
ENDCHAR
STARTCHAR 00D9
ENCODING 217
SWIDTH 540 0
DWIDTH 12 0
BBX 11 19 1 0
BITMAP
1800
0C00
0400
0000
FBE0
FBE0
F3C0
F1C0
F1C0
F1C0
F1C0
F1C0
F1C0
F1C0
F1C0
F1C0
7FC0
7F80
1F00
ENDCHAR
STARTCHAR 00DA
ENCODING 218
SWIDTH 540 0
DWIDTH 12 0
BBX 11 19 1 0
BITMAP
0600
0600
0C00
0000
FBE0
FBE0
F3C0
F1C0
F1C0
F1C0
F1C0
F1C0
F1C0
F1C0
F1C0
F1C0
7FC0
7F80
1F00
ENDCHAR
STARTCHAR 00DB
ENCODING 219
SWIDTH 540 0
DWIDTH 12 0
BBX 11 19 1 0
BITMAP
0E00
1A00
3300
0000
FBE0
FBE0
F3C0
F1C0
F1C0
F1C0
F1C0
F1C0
F1C0
F1C0
F1C0
F1C0
7FC0
7F80
1F00
ENDCHAR
STARTCHAR 00DC
ENCODING 220
SWIDTH 540 0
DWIDTH 12 0
BBX 11 19 1 0
BITMAP
3300
3B00
1100
0000
FBE0
FBE0
F3C0
F1C0
F1C0
F1C0
F1C0
F1C0
F1C0
F1C0
F1C0
F1C0
7FC0
7F80
1F00
ENDCHAR
STARTCHAR 00DF
ENCODING 223
SWIDTH 495 0
DWIDTH 11 0
BBX 9 15 1 0
BITMAP
3E00
7F00
F780
E380
E380
E380
EF00
EF00
E380
E380
E380
E380
E380
EF80
EF00
ENDCHAR
STARTCHAR 00E0
ENCODING 224
SWIDTH 495 0
DWIDTH 11 0
BBX 9 15 1 0
BITMAP
1800
1800
0800
0000
3E00
FF00
F780
E780
0F80
7F80
FF80
E780
E780
FF80
FB80
ENDCHAR
STARTCHAR 00E1
ENCODING 225
SWIDTH 495 0
DWIDTH 11 0
BBX 9 15 1 0
BITMAP
0600
0C00
0800
0000
3E00
FF00
F780
E780
0F80
7F80
FF80
E780
E780
FF80
FB80
ENDCHAR
STARTCHAR 00E2
ENCODING 226
SWIDTH 495 0
DWIDTH 11 0
BBX 9 15 1 0
BITMAP
1C00
3600
3600
0000
3E00
FF00
F780
E780
0F80
7F80
FF80
E780
E780
FF80
FB80
ENDCHAR
STARTCHAR 00E3
ENCODING 227
SWIDTH 495 0
DWIDTH 11 0
BBX 9 14 1 0
BITMAP
3F00
3E00
0000
3E00
FF00
F780
E780
0F80
7F80
FF80
E780
E780
FF80
FB80
ENDCHAR
STARTCHAR 00E4
ENCODING 228
SWIDTH 495 0
DWIDTH 11 0
BBX 9 15 1 0
BITMAP
6600
7600
2200
0000
3E00
FF00
F780
E780
0F80
7F80
FF80
E780
E780
FF80
FB80
ENDCHAR
STARTCHAR 00E5
ENCODING 229
SWIDTH 495 0
DWIDTH 11 0
BBX 9 15 1 0
BITMAP
1C00
1400
1C00
0000
3E00
FF00
F780
E780
0F80
7F80
FF80
E780
E780
FF80
FB80
ENDCHAR
STARTCHAR 00E6
ENCODING 230
SWIDTH 720 0
DWIDTH 16 0
BBX 14 11 1 0
BITMAP
3FF0
FFFC
E79C
E79C
1FFC
7FFC
F780
E79C
EF9C
FFFC
79F8
ENDCHAR
STARTCHAR 00E7
ENCODING 231
SWIDTH 450 0
DWIDTH 10 0
BBX 8 15 1 -4
BITMAP
3E
FF
E7
E7
E0
E0
E7
E7
E7
FF
7E
10
1C
1C
18
ENDCHAR
STARTCHAR 00E8
ENCODING 232
SWIDTH 450 0
DWIDTH 10 0
BBX 9 15 1 0
BITMAP
3000
1800
1800
0000
3E00
FF00
E700
E780
FF80
FF80
E000
E780
E780
FF80
3E00
ENDCHAR
STARTCHAR 00E9
ENCODING 233
SWIDTH 450 0
DWIDTH 10 0
BBX 9 15 1 0
BITMAP
0C00
0C00
1800
0000
3E00
FF00
E700
E780
FF80
FF80
E000
E780
E780
FF80
3E00
ENDCHAR
STARTCHAR 00EA
ENCODING 234
SWIDTH 450 0
DWIDTH 10 0
BBX 9 15 1 0
BITMAP
1C00
3400
6600
0000
3E00
FF00
E700
E780
FF80
FF80
E000
E780
E780
FF80
3E00
ENDCHAR
STARTCHAR 00EB
ENCODING 235
SWIDTH 450 0
DWIDTH 10 0
BBX 9 15 1 0
BITMAP
2000
7600
6600
0000
3E00
FF00
E700
E780
FF80
FF80
E000
E780
E780
FF80
3E00
ENDCHAR
STARTCHAR 00EC
ENCODING 236
SWIDTH 270 0
DWIDTH 6 0
BBX 5 15 0 0
BITMAP
E0
60
20
00
70
70
70
70
70
70
70
70
78
78
78
ENDCHAR
STARTCHAR 00ED
ENCODING 237
SWIDTH 270 0
DWIDTH 6 0
BBX 4 15 1 0
BITMAP
30
60
40
00
E0
E0
E0
E0
E0
E0
E0
E0
F0
F0
F0
ENDCHAR
STARTCHAR 00EE
ENCODING 238
SWIDTH 270 0
DWIDTH 6 0
BBX 6 15 0 0
BITMAP
70
58
CC
00
70
70
70
70
70
70
70
70
78
78
78
ENDCHAR
STARTCHAR 00EF
ENCODING 239
SWIDTH 270 0
DWIDTH 6 0
BBX 6 15 0 0
BITMAP
CC
DC
08
00
78
78
78
78
78
78
78
78
78
78
78
ENDCHAR
STARTCHAR 00F1
ENCODING 241
SWIDTH 540 0
DWIDTH 12 0
BBX 10 15 1 0
BITMAP
3B00
3E00
0000
0000
EF00
FF80
F380
E380
E380
E380
E380
E380
F3C0
F3C0
F3C0
ENDCHAR
STARTCHAR 00F2
ENCODING 242
SWIDTH 450 0
DWIDTH 10 0
BBX 9 15 1 0
BITMAP
3000
1800
1800
0000
3E00
FF00
E700
E780
E780
E780
E780
E780
E700
FF00
3E00
ENDCHAR
STARTCHAR 00F3
ENCODING 243
SWIDTH 450 0
DWIDTH 10 0
BBX 9 15 1 0
BITMAP
0C00
0C00
1800
0000
3E00
FF00
E700
E780
E780
E780
E780
E780
E700
FF00
3E00
ENDCHAR
STARTCHAR 00F4
ENCODING 244
SWIDTH 450 0
DWIDTH 10 0
BBX 9 15 1 0
BITMAP
1C00
3400
2600
0000
3E00
FF00
E700
E780
E780
E780
E780
E780
E700
FF00
3E00
ENDCHAR
STARTCHAR 00F5
ENCODING 245
SWIDTH 450 0
DWIDTH 10 0
BBX 9 14 1 0
BITMAP
3E00
7E00
0000
3E00
FF00
E700
E780
E780
E780
E780
E780
E700
FF00
3E00
ENDCHAR
STARTCHAR 00F6
ENCODING 246
SWIDTH 450 0
DWIDTH 10 0
BBX 9 15 1 0
BITMAP
6600
6600
2200
0000
3E00
FF00
E700
E780
E780
E780
E780
E780
E700
FF00
3E00
ENDCHAR
STARTCHAR 00F7
ENCODING 247
SWIDTH 540 0
DWIDTH 12 0
BBX 10 12 1 1
BITMAP
0C00
1E00
0C00
0000
0000
FFC0
FFC0
0000
0000
0C00
1E00
0C00
ENDCHAR
STARTCHAR 00F8
ENCODING 248
SWIDTH 450 0
DWIDTH 10 0
BBX 9 11 1 0
BITMAP
3F00
FF00
E700
E780
E780
E780
E780
E780
E700
FF00
FE00
ENDCHAR
STARTCHAR 00F9
ENCODING 249
SWIDTH 540 0
DWIDTH 12 0
BBX 11 15 0 0
BITMAP
1C00
0C00
0400
0000
F3C0
F3C0
71C0
71C0
71C0
71C0
71C0
71C0
79C0
7FE0
3FE0
ENDCHAR
STARTCHAR 00FA
ENCODING 250
SWIDTH 540 0
DWIDTH 12 0
BBX 11 15 0 0
BITMAP
0700
0600
0400
0000
F3C0
F3C0
71C0
71C0
71C0
71C0
71C0
71C0
79C0
7FE0
3FE0
ENDCHAR
STARTCHAR 00FB
ENCODING 251
SWIDTH 540 0
DWIDTH 12 0
BBX 11 15 0 0
BITMAP
0E00
1B00
1300
0000
F3C0
F3C0
71C0
71C0
71C0
71C0
71C0
71C0
79C0
7FE0
3FE0
ENDCHAR
STARTCHAR 00FC
ENCODING 252
SWIDTH 540 0
DWIDTH 12 0
BBX 11 15 0 0
BITMAP
1B00
3B80
1100
0000
F3C0
F3C0
71C0
71C0
71C0
71C0
71C0
71C0
79C0
7FE0
3FE0
ENDCHAR
STARTCHAR 00FF
ENCODING 255
SWIDTH 450 0
DWIDTH 10 0
BBX 10 19 0 -4
BITMAP
3300
3300
1100
0000
F3C0
F3C0
F3C0
7380
7380
3B80
3F00
3F00
1F00
1F00
1E00
0E00
1E00
3C00
3800
ENDCHAR
STARTCHAR 0131
ENCODING 305
SWIDTH 270 0
DWIDTH 6 0
BBX 4 11 1 0
BITMAP
E0
E0
E0
E0
E0
E0
E0
E0
F0
F0
F0
ENDCHAR
STARTCHAR 0152
ENCODING 338
SWIDTH 810 0
DWIDTH 18 0
BBX 16 15 1 0
BITMAP
3FFF
7FFF
FFFF
F3C7
E3C7
E3C0
E3FC
E3FC
E3FC
E3C0
E3C7
F3C7
FFFF
7FFF
3FFF
ENDCHAR
STARTCHAR 0153
ENCODING 339
SWIDTH 720 0
DWIDTH 16 0
BBX 14 11 1 0
BITMAP
7FF8
FFFC
E79C
E79C
E7FC
E7FC
E780
E79C
E79C
FFFC
7FF8
ENDCHAR
STARTCHAR 0178
ENCODING 376
SWIDTH 495 0
DWIDTH 11 0
BBX 11 19 0 0
BITMAP
1980
1B80
1100
0000
F9E0
F9E0
79E0
79C0
3BC0
3F80
1F80
1F00
0F00
0E00
0E00
0E00
1F00
1F00
1F00
ENDCHAR
STARTCHAR 0192
ENCODING 402
SWIDTH 450 0
DWIDTH 10 0
BBX 9 19 1 -3
BITMAP
0100
0F80
0F80
0E00
1E00
1E00
3F00
3F00
1C00
1C00
3C00
3C00
3800
3800
3800
7800
F800
F000
C000
ENDCHAR
STARTCHAR 02C6
ENCODING 710
SWIDTH 405 0
DWIDTH 9 0
BBX 5 3 2 12
BITMAP
70
D0
98
ENDCHAR
STARTCHAR 02DA
ENCODING 730
SWIDTH 315 0
DWIDTH 7 0
BBX 4 3 1 12
BITMAP
70
D0
70
ENDCHAR
STARTCHAR 02DC
ENCODING 732
SWIDTH 405 0
DWIDTH 9 0
BBX 5 2 2 13
BITMAP
E8
F8
ENDCHAR
STARTCHAR 03A9
ENCODING 937
SWIDTH 675 0
DWIDTH 15 0
BBX 14 16 1 0
BITMAP
0F80
38E0
7070
E038
E038
E03C
E03C
E03C
E03C
E038
6038
7070
18E4
8484
FCFC
FCFC
ENDCHAR
STARTCHAR 03BC
ENCODING 956
SWIDTH 495 0
DWIDTH 11 0
BBX 10 15 1 -4
BITMAP
C300
C300
C300
C300
C300
C300
C300
C300
C700
E700
F9C0
C000
C000
C000
C000
ENDCHAR
STARTCHAR 03C0
ENCODING 960
SWIDTH 450 0
DWIDTH 10 0
BBX 9 11 1 0
BITMAP
7F00
FF00
A400
2400
2400
2400
2400
2400
2680
6700
4300
ENDCHAR
STARTCHAR 2013
ENCODING 8211
SWIDTH 585 0
DWIDTH 13 0
BBX 11 2 1 5
BITMAP
FFE0
FFE0
ENDCHAR
STARTCHAR 2014
ENCODING 8212
SWIDTH 1080 0
DWIDTH 24 0
BBX 22 2 1 5
BITMAP
FFFFFC
FFFFFC
ENDCHAR
STARTCHAR 2018
ENCODING 8216
SWIDTH 225 0
DWIDTH 5 0
BBX 3 4 1 11
BITMAP
20
40
E0
E0
ENDCHAR
STARTCHAR 2019
ENCODING 8217
SWIDTH 225 0
DWIDTH 5 0
BBX 3 4 1 11
BITMAP
60
E0
60
40
ENDCHAR
STARTCHAR 201C
ENCODING 8220
SWIDTH 405 0
DWIDTH 9 0
BBX 6 4 1 11
BITMAP
24
48
EC
EC
ENDCHAR
STARTCHAR 201D
ENCODING 8221
SWIDTH 405 0
DWIDTH 9 0
BBX 7 4 1 11
BITMAP
6C
EE
6C
4C
ENDCHAR
STARTCHAR 201E
ENCODING 8222
SWIDTH 405 0
DWIDTH 9 0
BBX 7 5 1 -2
BITMAP
4C
EE
6C
44
08
ENDCHAR
STARTCHAR 2022
ENCODING 8226
SWIDTH 315 0
DWIDTH 7 0
BBX 5 5 1 5
BITMAP
70
F8
F8
F8
70
ENDCHAR
STARTCHAR 2026
ENCODING 8230
SWIDTH 990 0
DWIDTH 22 0
BBX 18 3 2 0
BITMAP
E0C1C0
E0E1C0
60C1C0
ENDCHAR
STARTCHAR 2030
ENCODING 8240
SWIDTH 1035 0
DWIDTH 23 0
BBX 21 15 1 0
BITMAP
783000
DC6000
CC6000
CCC000
CDC000
CD8000
FF8000
030000
06FDF8
06CD98
0CCD98
1CCD98
18CD98
38DDB8
3078F0
ENDCHAR
STARTCHAR 2039
ENCODING 8249
SWIDTH 225 0
DWIDTH 5 0
BBX 3 6 1 3
BITMAP
60
60
C0
C0
40
60
ENDCHAR
STARTCHAR 203A
ENCODING 8250
SWIDTH 225 0
DWIDTH 5 0
BBX 3 6 1 3
BITMAP
C0
C0
60
60
40
C0
ENDCHAR
STARTCHAR 2044
ENCODING 8260
SWIDTH 360 0
DWIDTH 8 0
BBX 10 15 -1 0
BITMAP
00C0
0180
0180
0300
0700
0600
0E00
0C00
1C00
1800
3000
7000
6000
E000
C000
ENDCHAR
STARTCHAR 20AC
ENCODING 8364
SWIDTH 540 0
DWIDTH 12 0
BBX 12 15 0 0
BITMAP
0FC0
1FF0
3FF0
3CF0
38F0
FF00
FF00
3800
FF00
FF00
38F0
3CF0
3FF0
1FF0
0FC0
ENDCHAR
STARTCHAR 2113
ENCODING 8467
SWIDTH 315 0
DWIDTH 7 0
BBX 7 16 0 0
BITMAP
1C
32
32
32
34
34
38
38
30
30
70
B0
30
30
32
1C
ENDCHAR
STARTCHAR 2126
ENCODING 8486
SWIDTH 720 0
DWIDTH 16 0
BBX 14 16 1 0
BITMAP
0780
3860
7030
6018
E018
C01C
C01C
C01C
C01C
E018
6018
6030
3060
8CC4
FCFC
FCFC
ENDCHAR
STARTCHAR 212E
ENCODING 8494
SWIDTH 630 0
DWIDTH 14 0
BBX 12 13 1 0
BITMAP
1F00
20C0
4060
C060
C070
C070
FFF0
C000
C000
C000
4020
2040
1F80
ENDCHAR
STARTCHAR 2202
ENCODING 8706
SWIDTH 495 0
DWIDTH 11 0
BBX 10 17 1 0
BITMAP
0600
1F80
2180
0080
00C0
00C0
1EC0
3980
7080
E080
E080
E180
C100
C100
E200
E400
3800
ENDCHAR
STARTCHAR 2206
ENCODING 8710
SWIDTH 585 0
DWIDTH 13 0
BBX 11 16 1 0
BITMAP
0E00
0E00
0E00
1E00
1F00
1700
1700
3380
2380
2380
61C0
41C0
41C0
C0C0
80E0
FFE0
ENDCHAR
STARTCHAR 220F
ENCODING 8719
SWIDTH 675 0
DWIDTH 15 0
BBX 13 19 1 -3
BITMAP
FFF8
7070
7060
7060
7060
7060
7060
7060
7060
7060
7060
7060
7060
7060
7060
7060
7060
7070
F9F8
ENDCHAR
STARTCHAR 2211
ENCODING 8721
SWIDTH 540 0
DWIDTH 12 0
BBX 10 19 1 -3
BITMAP
FFC0
E040
6040
7040
3800
3800
1C00
1C00
0E00
0C00
0800
0800
1000
3000
2000
6040
4040
FFC0
FFC0
ENDCHAR
STARTCHAR 2212
ENCODING 8722
SWIDTH 540 0
DWIDTH 12 0
BBX 10 2 1 6
BITMAP
FFC0
FFC0
ENDCHAR
STARTCHAR 2215
ENCODING 8725
SWIDTH 360 0
DWIDTH 8 0
BBX 10 15 -1 0
BITMAP
00C0
0180
0180
0300
0700
0600
0E00
0C00
1C00
1800
3000
7000
6000
E000
C000
ENDCHAR
STARTCHAR 2219
ENCODING 8729
SWIDTH 225 0
DWIDTH 5 0
BBX 3 3 1 6
BITMAP
E0
E0
E0
ENDCHAR
STARTCHAR 221A
ENCODING 8730
SWIDTH 315 0
DWIDTH 7 0
BBX 6 16 1 0
BITMAP
04
04
04
04
04
08
08
08
C8
48
48
68
28
30
30
10
ENDCHAR
STARTCHAR 221E
ENCODING 8734
SWIDTH 630 0
DWIDTH 14 0
BBX 13 6 0 3
BITMAP
38F0
4588
8308
8308
4708
38F0
ENDCHAR
STARTCHAR 222B
ENCODING 8747
SWIDTH 315 0
DWIDTH 7 0
BBX 5 22 1 -5
BITMAP
18
38
20
20
60
60
60
60
70
70
70
70
70
70
70
70
60
20
20
20
E0
C0
ENDCHAR
STARTCHAR 2248
ENCODING 8776
SWIDTH 540 0
DWIDTH 12 0
BBX 10 9 1 2
BITMAP
7800
FCC0
CFC0
0780
0000
7800
FCC0
CFC0
0780
ENDCHAR
STARTCHAR 2260
ENCODING 8800
SWIDTH 540 0
DWIDTH 12 0
BBX 10 12 1 1
BITMAP
0380
0380
0300
FFC0
FFC0
0E00
0C00
1C00
FFC0
FFC0
3000
7000
ENDCHAR
STARTCHAR 2264
ENCODING 8804
SWIDTH 540 0
DWIDTH 12 0
BBX 10 13 1 0
BITMAP
0040
03C0
0FC0
7E00
F000
F800
7E00
0FC0
03C0
0040
0000
FFC0
FFC0
ENDCHAR
STARTCHAR 2265
ENCODING 8805
SWIDTH 540 0
DWIDTH 12 0
BBX 10 13 1 0
BITMAP
8000
F000
7C00
1F80
03C0
07C0
1F80
FC00
F000
8000
0000
FFC0
FFC0
ENDCHAR
STARTCHAR 25CA
ENCODING 9674
SWIDTH 405 0
DWIDTH 9 0
BBX 7 16 1 0
BITMAP
10
38
28
68
44
44
82
82
82
82
44
44
68
28
38
10
ENDCHAR
STARTCHAR FB01
ENCODING 64257
SWIDTH 495 0
DWIDTH 11 0
BBX 10 15 1 0
BITMAP
3B80
7B80
F380
E000
FF80
FF80
E380
E380
E380
E380
E380
E380
F380
F7C0
F7C0
ENDCHAR
STARTCHAR FB02
ENCODING 64258
SWIDTH 495 0
DWIDTH 11 0
BBX 10 15 1 0
BITMAP
7F80
7F80
F780
E380
FB80
FB80
E380
E380
E380
E380
E380
E380
F380
F7C0
F7C0
ENDCHAR
ENDFONT
